REM DISCID 6E0FB018
REM COMMENT "ExactAudioCopy v1.1"
CATALOG 4571374912320
PERFORMER "Various Artists"
TITLE "初音ミク Project mirai こんぷり~と"
FILE "Various Artists - 初音ミク Project mirai こんぷり~と DISC5.wav" WAVE
  TRACK 01 AUDIO
    TITLE "MIRAI"
    PERFORMER "ラマーズＰ"
    ISRC JPJ931500131
    INDEX 01 00:00:00
  TRACK 02 AUDIO
    TITLE "DJ"
    PERFORMER "鼻そうめんP"
    ISRC JPJ931500132
    INDEX 00 02:38:30
    INDEX 01 02:40:00
  TRACK 03 AUDIO
    TITLE "LOUNGE"
    PERFORMER "k_zero+A"
    ISRC JPJ931500133
    INDEX 00 05:38:30
    INDEX 01 05:40:00
  TRACK 04 AUDIO
    TITLE "NATURE"
    PERFORMER "きくお"
    ISRC JPJ931500134
    INDEX 00 08:48:30
    INDEX 01 08:50:00
  TRACK 05 AUDIO
    TITLE "AQUA"
    PERFORMER "Lemm"
    ISRC JPJ931500135
    INDEX 00 11:16:30
    INDEX 01 11:18:00
  TRACK 06 AUDIO
    TITLE "WA"
    PERFORMER ".うさ (WhiteFlame)"
    ISRC JPJ931500136
    INDEX 00 14:15:30
    INDEX 01 14:17:00
  TRACK 07 AUDIO
    TITLE "キュート"
    PERFORMER "millstones"
    ISRC JPJ931500137
    INDEX 00 16:14:30
    INDEX 01 16:16:00
  TRACK 08 AUDIO
    TITLE "フューチャー"
    PERFORMER "tilt-six"
    ISRC JPJ931500138
    INDEX 00 19:31:30
    INDEX 01 19:33:00
  TRACK 09 AUDIO
    TITLE "ナチュナル"
    PERFORMER "effe"
    ISRC JPJ931500139
    INDEX 00 21:58:30
    INDEX 01 22:00:00
  TRACK 10 AUDIO
    TITLE "ミヤビ"
    PERFORMER "ちえP"
    ISRC JPJ931500140
    INDEX 00 27:03:30
    INDEX 01 27:05:00
  TRACK 11 AUDIO
    TITLE "ゆめゆめ"
    PERFORMER "kous"
    ISRC JPJ931500141
    INDEX 00 30:44:30
    INDEX 01 30:46:00
  TRACK 12 AUDIO
    TITLE "ペントハウス"
    PERFORMER "なきゃむりゃ"
    ISRC JPJ931500142
    INDEX 00 33:10:30
    INDEX 01 33:12:00
  TRACK 13 AUDIO
    TITLE "コテージ"
    PERFORMER "あつぞうくん"
    ISRC JPJ931500143
    INDEX 00 35:48:30
    INDEX 01 35:50:00
  TRACK 14 AUDIO
    TITLE "Sunday Morning"
    PERFORMER "あたわめ"
    ISRC JPJ931500144
    INDEX 00 39:15:30
    INDEX 01 39:17:00
  TRACK 15 AUDIO
    TITLE "Crux"
    PERFORMER "ちばけんいち"
    ISRC JPJ931500145
    INDEX 00 42:16:30
    INDEX 01 42:18:00
  TRACK 16 AUDIO
    TITLE "ALPHA and OMEGA"
    PERFORMER "YUKO AZUMABI"
    ISRC JPJ931500146
    INDEX 00 45:27:30
    INDEX 01 45:29:00
  TRACK 17 AUDIO
    TITLE "もきゅもきゅ"
    PERFORMER "立秋"
    ISRC JPJ931500147
    INDEX 00 48:31:30
    INDEX 01 48:33:00
  TRACK 18 AUDIO
    TITLE "Walk,Step,Happy"
    PERFORMER "Anemone"
    ISRC JPJ931500148
    INDEX 00 51:33:30
    INDEX 01 51:35:00
  TRACK 19 AUDIO
    TITLE "朱"
    PERFORMER "しめへび"
    ISRC JPJ931500149
    INDEX 00 54:29:30
    INDEX 01 54:31:00
  TRACK 20 AUDIO
    TITLE "バカンス"
    PERFORMER "まうあき"
    ISRC JPJ931500150
    INDEX 00 57:35:30
    INDEX 01 57:37:00
  TRACK 21 AUDIO
    TITLE "ゆめゆめ (GAME Ver.)"
    PERFORMER "DECO*27"
    ISRC JPJ931500151
    INDEX 00 60:30:30
    INDEX 01 60:32:00
  TRACK 22 AUDIO
    TITLE "アゲアゲアゲイン (GAME Ver.)"
    PERFORMER "Mitchie M"
    ISRC JPJ931500152
    INDEX 00 62:09:30
    INDEX 01 62:11:00
  TRACK 23 AUDIO
    TITLE "はじめまして地球人さん (GAME Ver.)"
    PERFORMER "ピノキオピー"
    ISRC JPJ931500153
    INDEX 00 63:41:30
    INDEX 01 63:43:00
  TRACK 24 AUDIO
    TITLE "はじめまして地球人さん (8bit Ver.)"
    PERFORMER "ピノキオピー"
    ISRC JPJ931500154
    INDEX 00 65:20:30
    INDEX 01 65:22:00
